<svg xmlns="http://www.w3.org/2000/svg" width="24" height="24" viewBox="0 0 24 24">
    <g fill="none" fill-rule="evenodd">
        <g fill="#0A0912" fill-rule="nonzero">
            <g>
                <path d="M12 11.314c4.458 0 8.071 3.613 8.071 8.07 0 5.24-16.142 5.24-16.142 0 0-4.457 3.613-8.07 8.071-8.07zm0 2c-3.353 0-6.071 2.718-6.071 6.07 0 2.573 12.142 2.573 12.142 0 0-3.352-2.718-6.07-6.071-6.07zM12 1c2.761 0 5 2.239 5 5s-2.239 5-5 5-5-2.239-5-5 2.239-5 5-5zm0 2c-1.657 0-3 1.343-3 3s1.343 3 3 3 3-1.343 3-3-1.343-3-3-3z" transform="translate(-1340 -28) translate(1340 28)"/>
            </g>
        </g>
    </g>
</svg>
