<svg xmlns="http://www.w3.org/2000/svg" width="48" height="48" viewBox="0 0 48 48">
    <g fill="none" fill-rule="evenodd" opacity=".32">
        <g fill="#1E252C" fill-rule="nonzero">
            <g>
                <path d="M20.308 4c9.006 0 16.307 7.301 16.307 16.308 0 3.95-1.404 7.57-3.74 10.393L43.55 41.374c.601.6.601 1.575 0 2.175-.6.601-1.575.601-2.175 0L30.7 32.875c-2.822 2.336-6.444 3.74-10.393 3.74C11.3 36.615 4 29.315 4 20.308 4 11.3 11.301 4 20.308 4zm0 3.077C13 7.077 7.077 13 7.077 20.307c0 7.308 5.924 13.231 13.23 13.231 7.308 0 13.231-5.923 13.231-13.23S27.615 7.077 20.308 7.077z" transform="translate(-76 -324) translate(76 324)"/>
            </g>
        </g>
    </g>
</svg>
